<svg width="170" height="170" viewBox="0 0 170 170" fill="none" xmlns="http://www.w3.org/2000/svg">
<path d="M125.202 23.281C132.796 28.8657 137.493 35.8734 139.643 44.9806C139.833 46.818 139.868 48.6331 139.854 50.4791C139.849 51.221 139.849 51.221 139.844 51.9778C139.505 67.7136 126.027 77.7139 115.554 88.0883C114.214 89.417 112.88 90.752 111.553 92.0927C94.2591 109.544 94.2591 109.544 82.1831 110.666C72.8806 110.7 65.6172 107.963 58.6905 101.868C59.7609 99.2861 61.479 97.6771 63.4971 95.7491C64.111 95.159 64.725 94.5689 65.3575 93.961C65.8289 93.5142 66.3002 93.0674 66.7858 92.607C68.955 93.2884 70.9156 93.9719 72.9415 95.0049C76.732 96.5966 81.2611 96.8107 85.1176 95.3643C89.9005 93.1705 93.2647 90.2596 96.94 86.584C97.5332 86.0024 98.1264 85.4208 98.7375 84.8215C99.9836 83.5962 101.225 82.3669 102.464 81.1337C104.345 79.2612 106.24 77.4032 108.138 75.5468C109.353 74.3483 110.568 73.149 111.781 71.9488C112.341 71.4 112.9 70.8513 113.477 70.286C119.083 64.6779 124.623 58.5864 125.139 50.4378C124.919 44.8329 122.695 39.8775 118.562 36.0093C114.217 32.6221 109.792 31.3216 104.255 31.5236C95.6188 32.6684 90.1485 39.167 84.257 44.8902C83.6902 45.4405 83.1235 45.9909 82.5396 46.5579C81.3492 47.716 80.1599 48.8751 78.9715 50.0352C77.763 51.2125 76.5514 52.3869 75.3369 53.5583C73.5673 55.2652 71.8068 56.9808 70.0481 58.6985C69.2416 59.472 69.2416 59.472 68.4188 60.261C63.7034 64.9027 59.3503 70.0039 59.1965 76.8142C59.2202 80.3023 60.22 83.3856 61.389 86.6537C57.51 89.9611 57.51 89.9611 55.9921 89.9611C55.8121 90.3158 55.6321 90.6706 55.4467 91.036C54.8531 92.1963 54.253 93.3534 53.6495 94.5088C53.2955 95.1909 52.9416 95.8731 52.577 96.5759C52.2213 97.2581 51.8656 97.9402 51.4992 98.643C48.8556 104.205 49.0486 112.134 50.6796 118.033C53.921 126.725 59.2443 131.491 67.5737 135.495C74.4718 138.275 82.8205 137.518 89.717 135.159C97.6409 131.728 102.68 126.181 105.913 118.405C106.995 115.183 107.283 112.55 106.925 109.185C106.853 106.804 107.128 106.006 108.64 104.087C110.381 102.405 112.184 100.816 114.008 99.2218C114.703 98.4393 115.383 97.6432 116.032 96.824C116.477 96.3055 116.922 95.7871 117.381 95.253C117.826 95.253 118.271 95.253 118.73 95.253C121.771 108.245 121.324 119.994 114.008 131.634C106.94 141.746 96.9 148.918 84.5099 151.212C73.2368 152.571 62.0102 150.407 52.8537 143.518C51.1296 142.041 49.5076 140.505 47.8969 138.911C47.3682 138.414 46.8395 137.918 46.2947 137.407C38.2335 129.369 35.4795 119.405 35.5562 108.392C35.7061 100.347 38.0841 91.098 43.9995 85.1447C45.8334 82.3941 45.3699 79.8467 45.1985 76.6489C44.9758 66.8757 47.9571 60.7133 54.6429 53.5798C55.5379 53.1301 56.4365 52.6871 57.3413 52.2569C57.5401 51.8606 57.7389 51.4643 57.9437 51.056C58.7873 49.4237 59.7612 48.38 61.0685 47.0766C61.5555 46.5885 62.0425 46.1004 62.5442 45.5975C63.0726 45.0759 63.601 44.5542 64.1453 44.0168C64.6932 43.4736 65.2411 42.9304 65.8056 42.3707C66.9686 41.2208 68.1334 40.0727 69.3001 38.9263C71.0646 37.1883 72.8161 35.4384 74.5674 33.6877C88.7374 19.6581 106.24 11.1469 125.202 23.281Z" fill="#222C6C"/>
<path d="M88.3731 59.5331C91.6075 61.0436 93.8795 63.4568 96.3418 65.9412C96.7449 66.3424 97.148 66.7436 97.5632 67.1569C98.5506 68.1405 99.5337 69.1282 100.516 70.1168C99.5195 73.4084 97.5634 75.2737 95.1191 77.5997C94.5661 78.1453 94.5661 78.1453 94.0018 78.7018C91.2518 81.3619 91.2518 81.3619 89.7223 81.3619C88.5679 80.2897 87.4487 79.1809 86.3493 78.0545C85.7614 77.4858 85.1736 76.917 84.5679 76.331C83.987 75.7674 83.4061 75.2038 82.8076 74.6231C82.2198 74.0543 81.6319 73.4856 81.0262 72.8996C78.7448 70.559 78.6656 68.8415 78.6862 65.7035C79.0942 63.1117 80.3917 61.9782 82.3017 60.1946C84.3689 59.1811 86.0906 59.3814 88.3731 59.5331Z" fill="#FE4B19"/>
</svg>
